<svg width="186" height="232" viewBox="0 0 186 232" fill="none" xmlns="http://www.w3.org/2000/svg">
<path fill-rule="evenodd" clip-rule="evenodd" d="M62 31.5762C45.775 48.9072 31.169 64.5302 29.541 66.2942C27.914 68.0572 20.8271 75.6722 13.7911 83.2162C6.75606 90.7602 1.00005 97.1732 1.00005 97.4662C1.00005 97.7602 42.4381 98.0002 93.0831 98.0002C149.414 98.0002 185.037 97.6392 184.833 97.0702C184.452 96.0072 179.17 90.3122 149.5 58.9712C144.55 53.7422 129.989 38.3342 117.143 24.7322C104.297 11.1292 93.272 0.015225 92.643 0.033225C92.014 0.051225 78.225 14.2452 62 31.5762ZM11.542 111.505C4.53603 113.33 0.901979 118.488 2.40398 124.472C3.57998 129.161 7.88 131.759 19.705 134.927C26.766 136.819 28.563 139.848 25.135 144.082C21.195 148.947 8.06098 146.071 7.17998 140.15C6.93698 138.512 6.16298 138 3.92998 138C1.55698 138 1.00108 138.428 1.00408 140.25C1.00908 143.64 4.50703 148.694 8.15203 150.579C10.095 151.584 13.849 152.278 17.529 152.312C27.32 152.404 33 147.764 33 139.675C33 133.576 28.61 129.936 18.8 127.901C11.9 126.469 9.00004 124.579 9.00004 121.512C9.00004 118.425 11.614 117 17.279 117C21.742 117 23.9711 118.456 25.3171 122.25C26.0891 124.427 30.8321 124.601 31.6451 122.482C32.6601 119.837 30.014 115.374 26.191 113.283C21.035 110.461 17.292 110.007 11.542 111.505ZM38.784 111.549C38.104 112.229 38.824 115.338 44.329 135.5L48.6971 151.5H52.022C55.666 151.5 55.563 151.733 61.616 129.75C63.51 122.874 64.452 121.627 65.392 124.75C66.499 128.422 70.839 143.686 71.933 147.75C72.954 151.544 73.397 152 76.06 152C78.2 152 79.316 151.365 80.009 149.75C81.44 146.419 90.0001 114.574 90.0001 112.584C90.0001 111.256 89.2721 110.943 86.7501 111.187L83.5001 111.5L80.929 122C79.515 127.775 78.0301 133.791 77.6301 135.368C77.2301 136.945 76.594 137.927 76.217 137.55C75.84 137.173 73.919 131.158 71.948 124.182L68.365 111.5H64.435H60.506L56.571 125.25C54.407 132.813 52.34 139 51.976 139C51.613 139 50.3 134.387 49.057 128.75C45.256 111.51 45.054 111 42.008 111C40.537 111 39.086 111.247 38.784 111.549ZM97.6671 111.667C97.3001 112.033 97.0001 121.258 97.0001 132.167V152H100.5H104V131.5V111H101.167C99.6081 111 98.0331 111.3 97.6671 111.667ZM114 131.5V152H118H122V144.647V137.293L129.53 136.657C141.495 135.646 146.333 131.905 146.333 123.667C146.333 118.427 144.754 115.431 140.686 112.95C138.01 111.318 135.62 111.007 125.75 111.004L114 111V131.5ZM154.23 131.724L154.5 152.5L168.873 152.672C176.778 152.766 183.889 152.596 184.677 152.294C185.539 151.963 185.987 150.702 185.804 149.122L185.5 146.5L174.038 146.215C166.41 146.026 162.317 145.524 161.803 144.715C161.378 144.047 161.024 141.618 161.015 139.317C160.999 134.765 162.386 133.679 167.769 134.033C169.271 134.131 173.313 134.164 176.75 134.106C182.972 134 183 133.987 183 131.067C183 127.358 181.726 126.958 171.252 127.378C161.929 127.752 160.678 127.061 161.182 121.815L161.5 118.5L173 118L184.5 117.5V114.5V111.5L169.23 111.224L153.959 110.948L154.23 131.724ZM122 123.387C122 128.508 122.135 128.791 124.75 129.137C126.263 129.336 129.511 129.275 131.968 129C135.476 128.607 136.752 127.934 137.908 125.865C139.228 123.505 139.202 122.958 137.667 120.615C136.091 118.209 135.398 118 128.977 118H122V123.387ZM34.5 167.99L0.500049 168.5L0.167041 175.5C-0.0159592 179.35 0.145073 193.349 0.525073 206.608L1.21599 230.716L21.358 231.26C39.497 231.75 43.5 231 43.5 231H52C52 231 57.4791 231.853 118.095 231.719C173.626 232.024 183.475 232.338 184.859 230.669C186.243 229 185.957 220.829 185.765 198.38L185.5 167.5L127 167.49C94.8251 167.485 53.2 167.71 34.5 167.99ZM56 193.969C56 215.667 57.698 218.639 70.651 219.617C78.909 220.24 83.358 218.347 86.165 213.016C87.713 210.077 88.0001 207.14 88.0001 194.266V179H85.117C81.341 179 81.031 180.33 81.014 196.576C81.001 208.942 80.874 209.769 78.686 211.826C75.619 214.706 69.243 214.766 65.661 211.948C63.078 209.916 63.049 209.742 62.776 194.698L62.5 179.5L59.25 179.187L56 178.873V193.969ZM98.446 180.281C98.175 180.985 98.077 190.098 98.227 200.531L98.5001 219.5H101.5H104.5L104.79 211.89L105.079 204.28L112.886 203.745C125.237 202.899 129.603 199.357 129.404 190.347C129.3 185.646 127.393 182.772 122.802 180.398C119.162 178.515 99.16 178.42 98.446 180.281ZM105 190.981C105 196.535 105.179 197.007 107.513 197.593C111.078 198.487 119.179 197.11 121.25 195.256C123.529 193.216 123.489 188.752 121.171 186.655C119.827 185.439 117.441 185 112.171 185H105V190.981Z" fill="black"/>
</svg>
