<svg aria-hidden="true" style="position: absolute; width: 0; height: 0; overflow: hidden;" version="1.1" xmlns="http://www.w3.org/2000/svg" xmlns:xlink="http://www.w3.org/1999/xlink">
<defs>
<symbol id="icon-swipeup" viewBox="0 0 26 32">
<path d="M8.552 4.355c2.238-2.39 4.14-4.348 4.227-4.351s1.607 1.53 3.379 3.407c1.772 1.876 3.78 4.001 4.463 4.723 4.092 4.323 4.821 5.108 4.874 5.255 0.028 0.078-4.885 0.128-12.655 0.128-6.986 0-12.701-0.033-12.701-0.074s0.794-0.925 1.764-1.966c0.97-1.041 1.948-2.091 2.172-2.334s2.239-2.398 4.477-4.789zM1.592 15.38c0.793-0.207 1.309-0.144 2.021 0.245 0.527 0.288 0.892 0.904 0.752 1.269-0.112 0.292-0.766 0.268-0.873-0.032-0.186-0.523-0.493-0.724-1.109-0.724-0.781 0-1.142 0.197-1.142 0.622 0 0.423 0.4 0.684 1.352 0.881 1.353 0.281 1.959 0.783 1.959 1.624 0 1.116-0.783 1.756-2.134 1.743-0.508-0.005-1.025-0.1-1.293-0.239-0.503-0.26-0.985-0.957-0.986-1.425-0-0.251 0.076-0.31 0.404-0.31 0.308 0 0.415 0.071 0.448 0.297 0.122 0.817 1.933 1.213 2.477 0.542 0.473-0.584 0.225-1.002-0.749-1.263-1.631-0.437-2.224-0.795-2.386-1.442-0.207-0.825 0.294-1.537 1.26-1.789zM5.35 15.386c0.042-0.042 0.242-0.076 0.445-0.076 0.42 0 0.448 0.070 0.972 2.448 0.171 0.778 0.353 1.414 0.403 1.414s0.335-0.853 0.634-1.897l0.543-1.897h1.084l0.494 1.749c0.272 0.962 0.537 1.792 0.589 1.844s0.14-0.083 0.195-0.301c0.055-0.218 0.26-1.047 0.455-1.844l0.355-1.448 0.448-0.043c0.348-0.034 0.448 0.010 0.448 0.193 0 0.274-1.181 4.667-1.378 5.126-0.096 0.223-0.25 0.31-0.545 0.31-0.367 0-0.428-0.063-0.569-0.586-0.151-0.561-0.75-2.666-0.902-3.172-0.13-0.431-0.26-0.259-0.521 0.69-0.835 3.032-0.821 3-1.323 3h-0.459l-0.603-2.207c-0.759-2.781-0.859-3.21-0.765-3.304zM13.471 15.402c0.050-0.051 0.268-0.092 0.483-0.092h0.391v5.655h-0.966v-2.736c0-1.505 0.041-2.777 0.092-2.828zM15.724 18.138v-2.828l1.621 0.001c1.361 0 1.691 0.043 2.060 0.268 0.561 0.342 0.779 0.755 0.779 1.478 0 1.136-0.667 1.652-2.318 1.792l-1.039 0.088v2.029h-1.103v-2.828zM21.273 18.169l-0.037-2.866 4.213 0.076v0.828l-3.172 0.138-0.044 0.457c-0.070 0.724 0.103 0.819 1.389 0.767 1.445-0.058 1.62-0.003 1.62 0.509 0 0.403-0.004 0.405-0.862 0.419-0.474 0.008-1.032 0.003-1.239-0.010-0.742-0.049-0.934 0.101-0.932 0.729 0.001 0.317 0.050 0.652 0.109 0.745 0.071 0.112 0.635 0.181 1.688 0.207l1.581 0.039 0.042 0.362c0.025 0.218-0.037 0.392-0.155 0.438-0.109 0.042-1.090 0.065-2.18 0.052l-1.982-0.024-0.037-2.866zM16.828 17.019c0 0.706 0.019 0.745 0.379 0.793 0.209 0.027 0.657 0.019 0.996-0.019 0.484-0.054 0.66-0.147 0.819-0.432 0.182-0.326 0.178-0.401-0.033-0.724-0.217-0.332-0.313-0.361-1.199-0.361h-0.962v0.743zM4.759 23.171c2.579-0.039 8.321-0.070 12.759-0.069l8.069 0.001 0.037 4.259c0.026 3.096 0.066 4.223-0.125 4.454s-1.549 0.187-9.209 0.145c-8.361 0.018-9.117-0.099-9.117-0.099h-1.172c0 0-0.552 0.103-3.054 0.036l-2.778-0.075-0.095-3.325c-0.052-1.829-0.075-3.76-0.049-4.291l0.046-0.966 4.69-0.070zM7.724 26.754c0 2.993 0.234 3.403 2.021 3.538 1.139 0.086 1.753-0.175 2.14-0.91 0.214-0.405 0.253-0.81 0.253-2.586v-2.106h-0.398c-0.521 0-0.564 0.183-0.566 2.424-0.002 1.706-0.019 1.82-0.321 2.103-0.423 0.397-1.302 0.406-1.797 0.017-0.356-0.28-0.36-0.304-0.398-2.379l-0.038-2.096-0.897-0.086v2.082zM13.579 24.866c-0.037 0.097-0.051 1.354-0.030 2.793l0.038 2.616h0.828l0.040-1.050 0.040-1.050 1.077-0.074c1.704-0.117 2.306-0.605 2.278-1.848-0.014-0.648-0.277-1.045-0.911-1.372-0.502-0.26-3.261-0.273-3.359-0.016zM14.483 26.342c0 0.766 0.025 0.831 0.347 0.912 0.492 0.123 1.609-0.067 1.895-0.322 0.314-0.281 0.309-0.897-0.011-1.186-0.185-0.168-0.514-0.228-1.241-0.228h-0.989v0.825z"></path>
</symbol>
</defs>
</svg>
